<?xml version="1.0" standalone="no"?>
<svg viewBox="0 0 200 200" xmlns="http://www.w3.org/2000/svg">
  <defs>
    <clipPath id="user-space" clipPathUnits="userSpaceOnUse">
      <path fill="#FF0066" d="M37.3,-54.5C45.5,-45.4,47.2,-30.7,49.6,-17.4C52.1,-4.2,55.4,7.4,52.6,17.5C49.8,27.5,41.1,35.9,31.3,48.1C21.5,60.3,10.8,76.1,-4.4,82.2C-19.5,88.2,-39.1,84.5,-48.1,72.1C-57,59.6,-55.5,38.6,-56.3,21.7C-57,4.8,-60.2,-7.9,-57.2,-19C-54.2,-30.1,-44.9,-39.6,-34.4,-47.9C-23.8,-56.1,-11.9,-63.1,1.3,-64.9C14.6,-66.8,29.2,-63.5,37.3,-54.5Z" transform="translate(100 100)" />
    </clipPath>
  </defs>
  <image width="100%" height="100%" preserveAspectRatio="xMinYMin slice" xlink:href="https://source.unsplash.com/random" clip-path="url(#user-space)"/>
</svg>
